<?xml version="1.0" encoding="UTF-8"?>
<svg width="12px" height="12px" viewBox="0 0 12 12" version="1.1" xmlns="http://www.w3.org/2000/svg" xmlns:xlink="http://www.w3.org/1999/xlink">
    <title>部分退运费icon</title>
    <g id="部分退运费icon" stroke="none" stroke-width="1" fill="none" fill-rule="evenodd">
        <g fill="#000000" fill-rule="nonzero">
            <rect id="矩形" opacity="0" x="0" y="0" width="12" height="12"></rect>
            <path d="M6.8356595,7.83814118 C6.79285192,7.83814118 6.75945967,7.83814118 6.72618437,7.83814118 C5.58225116,7.83814118 4.43835304,7.83825814 3.29439643,7.83814118 C3.12480355,7.8380827 3.01427578,7.76036238 2.98702396,7.62129622 C2.98166716,7.59351807 2.98217009,7.5643364 2.98217009,7.53591497 C2.98197744,6.51935186 2.98197744,5.50284723 2.98197744,4.48629581 C2.98197744,4.29348625 3.08647556,4.1909118 3.28229101,4.1909118 C4.43139388,4.19085332 5.58053184,4.19085332 6.72969319,4.19085332 C6.76062927,4.19085332 6.79179927,4.19085332 6.8356595,4.19085332 C6.8356595,4.15787043 6.8356595,4.12813904 6.8356595,4.09831409 C6.8356595,3.19360041 6.83554254,2.28881655 6.83577646,1.38402099 C6.83577646,1.25951642 6.89513397,1.16021687 6.99566161,1.12218128 C7.11133565,1.07837953 7.21396858,1.09855524 7.30116272,1.19068511 C7.35116338,1.24351621 7.40560854,1.29211334 7.45695424,1.34349414 C8.10474056,1.98987693 8.75240992,2.63655212 9.4000208,3.28293492 C10.2318446,4.11294586 11.0637269,4.94274628 11.8955508,5.77272213 C12.0340321,5.91075904 12.0347924,6.056375 11.8979485,6.1929265 C10.7075234,7.38130475 9.51722702,8.56978825 8.32645109,9.75769865 C7.98779165,10.0955394 7.64731933,10.4313333 7.30895229,10.7694664 C7.22187512,10.856602 7.12473934,10.8947897 7.00584888,10.8496429 C6.89023332,10.8057827 6.83578816,10.7147873 6.83578816,10.571686 C6.83561272,9.69559257 6.8356712,8.81938219 6.8356712,7.94330046 C6.8356595,7.91235268 6.8356595,7.88147508 6.8356595,7.83814118 Z M4.69730382,1.15096528 C4.69730382,1.49500491 4.69730382,1.83185146 4.69730382,2.1781952 C4.66359577,2.1781952 4.6332445,2.1781952 4.60291661,2.1781952 C3.73196945,2.1781952 2.8610223,2.17807824 1.99008684,2.17825368 C1.43818482,2.17833556 1.03177011,2.58559239 1.03174672,3.13858214 C1.03166484,5.05208105 1.03517366,6.96555657 1.02944259,8.87890344 C1.02786362,9.38516743 1.4130149,9.74990908 1.76910147,9.81651814 C1.84778087,9.83107974 1.92906849,9.83768801 2.00916311,9.83786345 C2.8722973,9.83938394 3.73546658,9.83879914 4.59863585,9.83879914 C4.62930292,9.83879914 4.66000508,9.83879914 4.69573655,9.83879914 C4.69573655,10.1817861 4.69573655,10.5185157 4.69573655,10.8601576 C4.68345569,10.8626138 4.66912801,10.868111 4.65476525,10.868111 C3.73701046,10.868111 2.8191621,10.8774678 1.90164123,10.8641343 C1.00490426,10.8512686 0.210800218,10.1707333 0.0396634585,9.28990301 C0.0155110933,9.16580781 0.00369807201,9.03732658 0.00355771928,8.91089217 C0.00133546776,6.97653918 -0.00377571075,5.04227975 0.00475071747,3.10807881 C0.00831801597,2.30015003 0.409726818,1.72016577 1.11073021,1.34323683 C1.35804342,1.21019414 1.6312283,1.15011147 1.91281096,1.14940971 C2.8227294,1.14695354 3.73265952,1.14847402 4.64260135,1.1485325 C4.65798166,1.1485442 4.6733269,1.14988925 4.69730382,1.15096528 Z" id="形状"></path>
        </g>
    </g>
</svg>